<?xml version="1.0" standalone="no"?><!DOCTYPE svg PUBLIC "-//W3C//DTD SVG 1.1//EN" "http://www.w3.org/Graphics/SVG/1.1/DTD/svg11.dtd"><svg class="icon" height="512" viewBox="0 0 1024 1024" version="1.1" xmlns="http://www.w3.org/2000/svg"><path d="M408.310726 410.986578c29.920893 0 54.246823-23.717781 54.246822-53.030526 0-16.298373-12.162965-30.772301-24.934077-48.043711-21.285188-28.947856-24.2043-38.313339-29.191116-38.313339-4.621927 0-10.095261 10.21689-31.258819 40.745932-10.825039 15.446965-23.109633 29.312745-22.988003 45.732747-0.12163 29.191115 24.2043 52.908897 54.125193 52.908897z m0 0M302.492933 271.477373c23.961041 0 43.421784-18.974225 43.421784-42.448747 0-13.014372-9.730372-24.690818-20.068892-38.556598-17.14978-23.231263-19.339114-30.650671-23.474522-30.772301-3.770519 0-8.027557 8.149186-25.055707 32.596745-8.635705 12.406224-18.487706 23.596152-18.366077 36.732154 0 23.474522 19.460744 42.448747 43.543414 42.448747zM725.399216 597.566457c-29.677634 0-58.50386-11.554816-79.30253-31.623708-16.420002-15.933484-43.056895-35.029338-76.748307-35.029339-30.650671 0-59.720157 21.163559-72.004751 33.691412-17.879558 18.244447-34.177931 32.110227-67.017936 32.110227-22.744744 0-45.611118-10.33852-61.058083-27.731559-14.595558-16.420002-31.13719-35.029338-65.43675-35.029339-36.367265 0-79.059271 21.893337-108.615275 40.137784l-18.001188-28.947856c33.204894-20.67704 82.221642-45.367858 126.616463-45.367859 49.503266 0 74.437344 27.974819 90.857346 46.462526 9.122224 10.21689 22.379855 16.298373 35.637487 16.298372 20.312151 0 28.582967-7.541038 42.813636-21.893336 19.947262-20.190521 57.165934-43.908303 96.33068-43.908303 47.435562 0 83.316308 27.974819 100.466089 44.638081 14.230669 13.74415 34.907709 22.014966 55.463119 22.014966 6.081482 0 20.67704-2.919112 50.354674-22.501485 20.190521-13.257632 39.408006-29.069486 49.746526-37.583561l1.459555-1.094667 21.528448 26.393634-1.337926 1.094667c-40.867561 33.569783-87.208457 67.869343-121.751277 67.869343zM792.660411 864.300273H231.217959c-34.299561 0-62.15275-27.853189-62.152749-62.15275V294.343746c0-9.365483 7.662668-17.028151 17.02815-17.02815s17.028151 7.662668 17.028151 17.02815v507.803777c0 15.446965 12.527854 28.096449 28.096448 28.096449h561.442452c15.446965 0 28.096449-12.527854 28.096448-28.096449V294.343746c0-15.446965-12.527854-28.096449-28.096448-28.096448H509.141703c-9.365483 0-17.028151-7.662668-17.02815-17.028151s7.662668-17.028151 17.02815-17.02815h283.518708c34.299561 0 62.15275 27.853189 62.15275 62.152749v507.803777c0 34.177931-27.853189 62.15275-62.15275 62.15275z" /></svg>